# xmcd
#
# Track frame offsets:
#	150
#	11392
#	24232
#	45390
#	56729
#	79545
#	94312
#	110834
#	124185
#	135850
#	163318
#	178160
#	198284
#	211335
#	220069
#
# Disc length: 3094 seconds
#
# Revision: 1
# Processed by: cddbd v1.5.1PL0 Copyright (c) Steve Scherf et al.
# Submitted via: audiograbber 1.83.01
#
DISCID=c80c140f
DTITLE=Various Artist - Working On A Chain Gang - Working On A Chain Gang
DYEAR=2005
DGENRE=Blues
TTITLE0=John  Lee Hooker - Boom Boom
TTITLE1=Howlin Wolf - Killing Floor
TTITLE2=Lightning Hopkins - Going Back Home
TTITLE3=Elmore James - Rollin and Tumblin
TTITLE4=Bb King - The Thrill Is Gone
TTITLE5=Memphis Slim - My Walkin Shoes
TTITLE6=Mississippi John Hurt - Make Me A Pallet On Your Floor
TTITLE7=Muddy Waters - Baby Please Don't Go
TTITLE8=Etta James - Id Rather Go Blind
TTITLE9=Otis Rush and Little Walter - Its Hard For Me To Believe Baby
TTITLE10=Billy Boy Arnold - I Wish You Would
TTITLE11=Little Walter - Going Down Slow
TTITLE12=Jimmy Reed - Lets Get Together
TTITLE13=Magic Sam - Black Magic Blues
TTITLE14=Ray Charles - Cc Rider
EXTD=
EXTT0=
EXTT1=
EXTT2=
EXTT3=
EXTT4=
EXTT5=
EXTT6=
EXTT7=
EXTT8=
EXTT9=
EXTT10=
EXTT11=
EXTT12=
EXTT13=
EXTT14=
PLAYORDER=
